# AST/ASF file generated using VICON BodyLanguage
# -----------------------------------------------
:version 1.10
:name VICON
:units
  mass 1.0
  length 0.45
  angle deg
:documentation
   .ast/.asf automatically generated from VICON data using
   VICON BodyBuilder and BodyLanguage model FoxedUp or BRILLIANT.MOD
:root
   order TX TY TZ RX RY RZ
   axis XYZ
   position 0 0 0  
   orientation 0 0 0 
:bonedata
  begin
     id 1 
     name lhipjoint
     direction 0.630082 -0.636569 0.44472 
     length 2.82754 
     axis 0 0 0  XYZ
  end
  begin
     id 2 
     name lfemur
     direction 0.34202 -0.939693 0  
     length 7.26371  
     axis 0 0 20  XYZ
    dof rx ry rz
    limits (-160.0 20.0)
           (-70.0 70.0)
           (-60.0 70.0)
  end
  begin
     id 3 
     name ltibia
     direction 0.34202 -0.939693 0   
     length 7.88616   
     axis 0 0 20   XYZ
    dof rx
    limits (-10.0 170.0)
  end
  begin
     id 4 
     name lfoot
     direction 0.0603448 -0.165796 0.984312   
     length 1.77861   
     axis -90 7.62852e-016 20   XYZ
    dof rx rz
    limits (-45.0 90.0)
           (-70.0 20.0)
  end
  begin
     id 5 
     name ltoes
     direction 1.53577e-011 -4.21876e-011 1   
     length 0.902235   
     axis -90 7.62852e-016 20   XYZ
    dof rx
    limits (-90.0 20.0)
  end
  begin
     id 6 
     name rhipjoint
     direction -0.656778 -0.61817 0.431866   
     length 2.9117  
     axis 0 0 0  XYZ 
  end
  begin
     id 7 
     name rfemur
     direction -0.34202 -0.939693 0   
     length 6.81603   
     axis 0 0 -20   XYZ
    dof rx ry rz
    limits (-160.0 20.0)
           (-70.0 70.0)
           (-70.0 60.0)
  end
  begin
     id 8 
     name rtibia
     direction -0.34202 -0.939693 0   
     length 8.05997   
     axis 0 0 -20   XYZ
    dof rx
    limits (-10.0 170.0)
 end
 begin
     id 9 
     name rfoot
     direction -0.0862404 -0.236944 0.967688   
     length 1.84899  
     axis -90 -7.62852e-016 -20   XYZ
    dof rx rz
    limits (-45.0 90.0)
           (-20.0 70.0)
  end
  begin
     id 10 
     name rtoes
     direction -1.53561e-011 -4.21798e-011 1   
     length 0.931579   
     axis -90 -7.62852e-016 -20   XYZ
    dof rx
    limits (-90.0 20.0)
  end
  begin
     id 11 
     name lowerback
     direction -0.0110203 0.991769 -0.127564   
     length 2.05686   
     axis 0 0 0   XYZ
    dof rx ry rz
    limits (-20.0 45.0)
           (-30.0 30.0)
           (-30.0 30.0)
  end
  begin
     id 12 
     name upperback
     direction 0.0109719 0.99993 -0.00432479   
     length 2.06234   
     axis 0 0 0   XYZ
    dof rx ry rz
    limits (-20.0 45.0)
           (-30.0 30.0)
           (-30.0 30.0)
  end
  begin
     id 13 
     name thorax
     direction 0.0173308 0.998351 0.0547306   
     length 2.09856   
     axis 0 0 0   XYZ
    dof rx ry rz
    limits (-20.0 45.0)
           (-30.0 30.0)
           (-30.0 30.0)
  end
  begin
     id 14 
     name lowerneck
     direction -0.0311736 0.989033 0.144366   
     length 1.98151   
     axis 0 0 0   XYZ
    dof rx ry rz
    limits (-20.0 45.0)
           (-30.0 30.0)
           (-30.0 30.0)
  end
  begin
     id 15 
     name upperneck
     direction 0.0421057 0.975772 -0.214698   
     length 2.01457   
     axis 0 0 0   XYZ
    dof rx ry rz
    limits (-20.0 45.0)
           (-30.0 30.0)
           (-30.0 30.0)
  end
  begin
     id 16
     name head
     direction 0.0136911 0.995958 -0.0887718  
     length 2.03562  
     axis 0 0 0   XYZ
    dof rx ry rz
    limits (-20.0 45.0)
           (-30.0 30.0)
           (-30.0 30.0)
  end
  begin
     id 17 
     name lclavicle
     direction 0.915335 0.396201 0.0720134  
     length 4.16217  
     axis 0 0 0   XYZ
    dof ry rz
    limits (-20.0 10.0)
           (0.0 20.0)
  end
  begin
     id 18 
     name lhumerus
     direction 1 -4.48965e-011 6.383e-018   
     length 4.93042   
     axis -180 -30 -90   XYZ
    dof rx ry rz
    limits (-60.0 90.0)
           (-90.0 90.0)
           (-90.0 90.0)
  end
  begin
     id 19
     name lradius
     direction 1 -4.48972e-011 8.8689e-027   
     length 3.68177   
     axis -180 -30 -90   XYZ
    dof rx
    limits (-10.0 170.0)
  end
  begin
     id 20
     name lwrist
     direction 1 -4.48953e-011 1.17971e-026   
     length 1.84089   
     axis -7.69454e-015 90 90   XYZ
    dof ry
    limits (-180.0 0.0)
 end
  begin
     id 21 
     name lhand
     direction 1 -4.49027e-011 2.35802e-026   
     length 0.721479   
     axis -1.50533e-014 90 90   XYZ
    dof rx rz
    limits (-90.0 90.0)
           (-45.0 45.0)
  end
  begin
     id 22 
     name lfingers
     direction 1 -4.48915e-011 4.72027e-026   
     length 0.581675   
     axis -3.01059e-014 90 90   XYZ
    dof rx
    limits (0.0 90.0)
  end
  begin
     id 23
     name lthumb
     direction 0.707107 -6.34948e-011 0.707107   
     length 0.835172   
     axis -90 45 -5.12164e-014   XYZ
    dof rx rz
    limits (-45.0 45.0)
           (-45.0 45.0)
  end
  begin
     id 24 
     name rclavicle
     direction -0.882781 0.469197 0.0234974   
     length 3.95647  
     axis 0 0 0   XYZ 
    dof ry rz
    limits (-10.0 20.0)
           (-20.0 0.0)
  end
  begin
     id 25 
     name rhumerus
     direction -1 -4.48965e-011 -1.54906e-018  
     length 5.07905   
     axis -180 30 90   XYZ
    dof rx ry rz
    limits (-90.0 60.0)
           (-90.0 90.0)
           (-90.0 90.0)
  end
  begin
     id 26 
     name rradius
     direction -1 -4.48972e-011 5.47489e-027   
     length 3.54394   
     axis -180 30 90   XYZ
    dof rx
    limits (-10.0 170.0)
  end
  begin
     id 27 
     name rwrist
     direction -1 -4.48955e-011 1.17969e-026   
     length 1.77197   
     axis -7.69454e-015 -90 -90   XYZ
    dof ry
    limits (-180.0 0.0)
  end
  begin
     id 28
     name rhand
     direction -1 -4.48982e-011 2.35888e-026   
     length 0.681156   
     axis -1.50533e-014 -90 -90   XYZ
    dof rx rz
    limits (-90.0 90.0)
           (-45.0 45.0)
  end
  begin
     id 29
     name rfingers
     direction -1 -4.48955e-011 4.71877e-026   
     length 0.549165   
     axis -3.01059e-014 -90 -90   XYZ
    dof rx
    limits (0.0 90.0)
  end
  begin
     id 30
     name rthumb
     direction -0.707107 -6.3491e-011 0.707107   
     length 0.788495   
     axis -90 -45 5.12164e-014   XYZ
    dof rx rz
    limits (-45.0 45.0)
           (-45.0 45.0)
  end
:hierarchy
  begin
    root lhipjoint rhipjoint lowerback
    lhipjoint lfemur
    lfemur ltibia
    ltibia lfoot
    lfoot ltoes
    rhipjoint rfemur
    rfemur rtibia
    rtibia rfoot
    rfoot rtoes
    lowerback upperback
    upperback thorax
    thorax lowerneck lclavicle rclavicle
    lowerneck upperneck
    upperneck head
    lclavicle lhumerus
    lhumerus lradius
    lradius lwrist
    lwrist lhand lthumb
    lhand lfingers
    rclavicle rhumerus
    rhumerus rradius
    rradius rwrist
    rwrist rhand rthumb
    rhand rfingers
  end

#!OML:ASF H:\Bending\Project 1\Capture day 1\Session 1\Subject.ASF
:FULLY-SPECIFIED
:DEGREES
236
root -8.82023 17.9596 -16.6261 161.638 92.1244 157.131
lowerback 4.19621 0.300532 0.904826
upperback -3.78156 0.637299 2.12324
thorax -6.30428 0.348218 1.64128
lowerneck -23.8785 -3.73065 -5.77228
upperneck 32.8995 -3.38766 2.25498
head 15.8366 -1.61509 1.32688
rclavicle 3.52843e-015 -9.54166e-015
rhumerus -27.1712 16.156 -91.1317
rradius 101.072
rwrist -1.48266
rhand -25.7439 -35.1165
rfingers 7.12502
rthumb 0.793077 -65.0948
lclavicle 3.52843e-015 -9.54166e-015
lhumerus -27.9708 -22.7579 96.6453
lradius 104.202
lwrist 48.179
lhand -34.3153 21.795
lfingers 7.12502
lthumb -7.4839 51.6426
rfemur 5.10911 -4.94498 14.8885
rtibia -1.59028e-015
rfoot -10.2135 -12.6897
rtoes 0.00401035
lfemur -7.15779 -15.1124 -15.2508
ltibia 22.9691
lfoot -26.0778 20.221
ltoes -27.3305
237
root -8.8201 17.9597 -16.6151 159.431 92.1434 154.946
lowerback 4.20105 0.361833 1.0137
upperback -3.78078 0.729601 2.14808
thorax -6.30755 0.389933 1.59715
lowerneck -23.8424 -3.79695 -5.8322
upperneck 32.8652 -3.45325 2.22933
head 15.8168 -1.65408 1.31241
rclavicle -2.08724e-015 -3.18055e-015
rhumerus -25.8585 16.0366 -90.7095
rradius 100.621
rwrist -1.9142
rhand -25.1776 -35.0568
rfingers 7.12502
rthumb 1.34001 -65.0324
lclavicle -2.08724e-015 -3.18055e-015
lhumerus -26.8767 -22.879 96.3926
lradius 103.7
lwrist 48.4779
lhand -34.6265 21.9263
lfingers 7.12502
lthumb -7.78427 51.763
rfemur 5.1381 -4.95236 15.0228
rtibia 3.18055e-015
rfoot -10.2219 -12.699
rtoes 0.0143799
lfemur -7.1798 -14.9596 -15.1217
ltibia 23.0379
lfoot -25.8897 20.2608
ltoes -28.0521
238
root -8.82029 17.9608 -16.604 157.736 92.1861 153.265
lowerback 4.20758 0.438161 1.1145
upperback -3.76442 0.841289 2.17975
thorax -6.29567 0.44166 1.56274
lowerneck -23.7978 -3.85399 -5.91068
upperneck 32.7413 -3.50434 2.21236
head 15.7519 -1.68942 1.30664
rclavicle 5.37961e-015 2.38542e-014
rhumerus -24.5984 15.9511 -90.2432
rradius 100.181
rwrist -2.35354
rhand -24.7576 -34.9712
rfingers 7.12502
rthumb 1.74565 -64.9438
lclavicle 5.37961e-015 2.38542e-014
lhumerus -25.8015 -22.9306 96.1794
lradius 103.231
lwrist 48.7029
lhand -34.7962 22.2149
lfingers 7.12502
lthumb -7.94811 52.0455
rfemur 5.14706 -4.93489 15.1524
rtibia 1.27222e-014
rfoot -10.1974 -12.7146
rtoes -0.0922876
lfemur -7.19204 -14.8673 -15.0045
ltibia 23.0855
lfoot -25.739 20.3459
ltoes -28.7414
239
root -8.82071 17.9622 -16.5927 156.877 92.2399 152.415
lowerback 4.21321 0.522996 1.17381
upperback -3.72559 0.960666 2.21776
thorax -6.26017 0.499033 1.5575
lowerneck -23.7545 -3.89052 -5.99075
upperneck 32.5302 -3.5328 2.20892
head 15.6448 -1.7147 1.31038
rclavicle -2.86995e-015 -4.77083e-015
rhumerus -23.3843 15.8788 -89.7326
rradius 99.7557
rwrist -2.68877
rhand -24.3935 -34.8839
rfingers 7.12502
rthumb 2.09729 -64.8533
lclavicle -2.86995e-015 -4.77083e-015
lhumerus -24.7568 -22.906 95.9961
lradius 102.821
lwrist 48.7615
lhand -34.7641 22.7018
lfingers 7.12502
lthumb -7.91707 52.5335
rfemur 5.1424 -4.89747 15.2577
rtibia 6.36111e-015
rfoot -10.1442 -12.7292
rtoes -0.276279
lfemur -7.1909 -14.8213 -14.9146
ltibia 23.1113
lfoot -25.6438 20.4347
ltoes -29.2572
240
root -8.82161 17.9636 -16.5811 156.724 92.2851 152.269
lowerback 4.21614 0.601334 1.17297
upperback -3.66195 1.06619 2.2641
thorax -6.19774 0.552239 1.59608
lowerneck -23.7207 -3.89287 -6.04335
upperneck 32.2484 -3.52577 2.20866
head 15.5044 -1.72206 1.31703
rclavicle -8.18744e-015 -1.59028e-014
rhumerus -22.1853 15.8143 -89.1991
rradius 99.3214
rwrist -2.86175
rhand -24.0328 -34.8402
rfingers 7.12502
rthumb 2.44568 -64.8059
lclavicle -8.18744e-015 -1.59028e-014
lhumerus -23.7488 -22.8196 95.824
lradius 102.483
lwrist 48.6159
lhand -34.554 23.3441
lfingers 7.12502
lthumb -7.71434 53.1834
rfemur 5.13187 -4.85785 15.3297
rtibia -1.43125e-014
rfoot -10.0788 -12.7334
rtoes -0.45273
lfemur -7.18296 -14.8062 -14.8541
ltibia 23.1232
lfoot -25.6213 20.4752
ltoes -29.4273
241
root -8.82343 17.9648 -16.5696 156.861 92.3029 152.413
lowerback 4.21849 0.65556 1.11465
upperback -3.57725 1.13479 2.32004
thorax -6.11344 0.589725 1.68053
lowerneck -23.7013 -3.85111 -6.0394
upperneck 31.9264 -3.47343 2.19562
head 15.3449 -1.70561 1.31719
rclavicle 1.11444e-014 1.19271e-014
rhumerus -20.9614 15.7787 -88.6732
rradius 98.8333
rwrist -2.88999
rhand -23.6842 -34.8794
rfingers 7.12502
rthumb 2.78238 -64.841
lclavicle 1.11444e-014 1.19271e-014
lhumerus -22.7737 -22.6974 95.6375
lradius 102.212
lwrist 48.3034
lhand -34.2608 24.0295
lfingers 7.12502
lthumb -7.43129 53.879
rfemur 5.12286 -4.8388 15.3723
rtibia -2.22639e-014
rfoot -10.021 -12.7212
rtoes -0.544634
lfemur -7.17947 -14.8089 -14.8134
ltibia 23.1315
lfoot -25.6741 20.4279
ltoes -29.142
242
root -8.82663 17.9658 -16.5586 156.841 92.2813 152.4
lowerback 4.22601 0.673786 1.02037
upperback -3.48058 1.15257 2.38279
thorax -6.01943 0.603529 1.7971
lowerneck -23.6968 -3.76585 -5.96497
upperneck 31.6029 -3.37834 2.1621
head 15.1847 -1.66533 1.30522
rclavicle -6.11263e-015 7.15625e-015
rhumerus -19.6853 15.8107 -88.1762
rradius 98.2488
rwrist -2.85332
rhand -23.4005 -35.0106
rfingers 7.12502
rthumb 3.05633 -64.9685
lclavicle -6.11263e-015 7.15625e-015
lhumerus -21.8161 -22.5649 95.4105
lradius 101.98
lwrist 47.9234
lhand -34 24.6308
lfingers 7.12502
lthumb -7.17954 54.489
rfemur 5.11997 -4.85836 15.3973
rtibia 3.18055e-015
rfoot -9.9847 -12.6941
rtoes -0.519342
lfemur -7.19043 -14.8183 -14.7782
ltibia 23.1428
lfoot -25.7795 20.2835
ltoes -28.4307
243
root -8.83136 17.9668 -16.5483 156.367 92.2187 151.933
lowerback 4.24567 0.656082 0.919601
upperback -3.38379 1.12199 2.44499
thorax -5.93121 0.593428 1.92119
lowerneck -23.7032 -3.65178 -5.83268
upperneck 31.3157 -3.26006 2.11959
head 15.0422 -1.6089 1.28474
rclavicle 3.66509e-015 1.98785e-014
rhumerus -18.3598 15.9452 -87.7067
rradius 97.5524
rwrist -2.8522
rhand -23.2365 -35.2069
rfingers 7.12502
rthumb 3.21467 -65.1624
lclavicle 3.66509e-015 1.98785e-014
lhumerus -20.8537 -22.4379 95.1257
lradius 101.733
lwrist 47.5998
lhand -33.8514 25.0599
lfingers 7.12502
lthumb -7.03615 54.9229
rfemur 5.12379 -4.92235 15.4172
rtibia 6.36111e-015
rfoot -9.97279 -12.6612
rtoes -0.399362
lfemur -7.22004 -14.827 -14.7377
ltibia 23.1573
lfoot -25.8927 20.0693
ltoes -27.4804
244
root -8.83739 17.968 -16.5385 155.357 92.125 150.926
lowerback 4.28099 0.615059 0.837205
upperback -3.29795 1.06171 2.49809
thorax -5.86198 0.567526 2.02813
lowerneck -23.7141 -3.53457 -5.68013
upperneck 31.0932 -3.15051 2.09698
head 14.932 -1.54988 1.26823
rclavicle -7.65942e-015 -7.95139e-015
rhumerus -17.0209 16.1889 -87.2412
rradius 96.7689
rwrist -2.95858
rhand -23.2077 -35.4155
rfingers 7.12502
rthumb 3.24253 -65.3706
lclavicle -7.65942e-015 -7.95139e-015
lhumerus -19.8643 -22.3188 94.7823
lradius 101.41
lwrist 47.4388
lhand -33.8207 25.2994
lfingers 7.12502
lthumb -7.00651 55.1634
rfemur 5.12986 -5.02288 15.4402
rtibia 3.18055e-015
rfoot -9.97828 -12.6352
rtoes -0.24561
lfemur -7.26767 -14.8295 -14.6885
ltibia 23.1703
lfoot -25.9636 19.8374
ltoes -26.5801
245
root -8.84419 17.9696 -16.529 153.887 92.0168 149.453
lowerback 4.32935 0.570148 0.785065
upperback -3.23058 0.998642 2.5383
thorax -5.81858 0.538743 2.10481
lowerneck -23.7226 -3.44174 -5.55502
upperneck 30.9478 -3.08068 2.12397
head 14.8609 -1.50267 1.27018
rclavicle -4.61553e-015 4.77083e-015
rhumerus -15.722 16.5071 -86.7503
rradius 95.9565
rwrist -3.18293
rhand -23.2713 -35.5847
rfingers 7.12502
rthumb 3.18112 -65.5408
lclavicle -4.61553e-015 4.77083e-015
lhumerus -18.8326 -22.1984 94.3969
lradius 100.949
lwrist 47.5001
lhand -33.8431 25.3959
lfingers 7.12502
lthumb -7.02811 55.2592
rfemur 5.12952 -5.1434 15.4701
rtibia -1.43125e-014
rfoot -9.98917 -12.6267
rtoes -0.124879
lfemur -7.33187 -14.8222 -14.6316
ltibia 23.1775
lfoot -25.9573 19.6394
ltoes -26.0011
246
root -8.85117 17.9715 -16.5195 152.083 91.9103 147.631
lowerback 4.38306 0.53863 0.760579
upperback -3.18488 0.956046 2.57016
thorax -5.80096 0.518997 2.15537
lowerneck -23.7231 -3.39151 -5.49405
upperneck 30.8749 -3.06615 2.21149
head 14.8269 -1.47673 1.29825
rclavicle -5.10628e-015 7.95139e-016
rhumerus -14.5101 16.8299 -86.2227
rradius 95.181
rwrist -3.46871
rhand -23.3414 -35.6873
rfingers 7.12502
rthumb 3.11342 -65.6443
lclavicle -5.10628e-015 7.95139e-016
lhumerus -17.7545 -22.0622 93.9987
lradius 100.307
lwrist 47.7936
lhand -33.8252 25.4264
lfingers 7.12502
lthumb -7.01087 55.2903
rfemur 5.11205 -5.2676 15.5088
rtibia 9.54166e-015
rfoot -9.99488 -12.6388
rtoes -0.0738131
lfemur -7.41488 -14.8044 -14.5675
ltibia 23.1796
lfoot -25.8696 19.5028
ltoes -25.8658
247
root -8.8579 17.9738 -16.5101 149.956 91.8154 145.466
lowerback 4.43368 0.528455 0.752875
upperback -3.1602 0.944438 2.60521
thorax -5.8045 0.514325 2.19701
lowerneck -23.7124 -3.3861 -5.50588
upperneck 30.857 -3.09995 2.33936
head 14.8206 -1.47332 1.34676
rclavicle -2.81715e-015 -8.74653e-015
rhumerus -13.4018 17.0738 -85.6805
rradius 94.4818
rwrist -3.71864
rhand -23.3284 -35.7328
rfingers 7.12502
rthumb 3.12593 -65.6897
lclavicle -2.81715e-015 -8.74653e-015
lhumerus -16.6366 -21.8996 93.618
lradius 99.4705
lwrist 48.2954
lhand -33.701 25.4607
lfingers 7.12502
lthumb -6.89091 55.3286
rfemur 5.06872 -5.38729 15.5587
rtibia 1.74931e-014
rfoot -9.99012 -12.6657
rtoes -0.086749
lfemur -7.52322 -14.7787 -14.4926
ltibia 23.1833
lfoot -25.7258 19.422
ltoes -26.0991
248
root -8.86433 17.9763 -16.501 147.339 91.7324 142.787
lowerback 4.47687 0.535976 0.750862
upperback -3.15309 0.958788 2.65569
thorax -5.82343 0.523028 2.24922
lowerneck -23.6914 -3.41256 -5.56885
upperneck 30.8722 -3.15657 2.46248
head 14.8299 -1.48598 1.39808
rclavicle -8.97948e-015 -2.38542e-015
rhumerus -12.3735 17.1721 -85.1754
rradius 93.8499
rwrist -3.83869
rhand -23.1815 -35.7609
rfingers 7.12502
rthumb 3.26783 -65.7156
lclavicle -8.97948e-015 -2.38542e-015
lhumerus -15.4913 -21.712 93.2746
lradius 98.4549
lwrist 48.9715
lhand -33.4695 25.53
lfingers 7.12502
lthumb -6.66748 55.405
rfemur 4.99645 -5.50548 15.6216
rtibia 0
rfoot -9.97515 -12.6958
rtoes -0.129948
lfemur -7.66378 -14.7529 -14.4018
ltibia 23.1969
lfoot -25.5693 19.3672
ltoes -26.4712
249
root -8.87066 17.9791 -16.4926 143.962 91.6547 139.328
lowerback 4.51479 0.549475 0.749555
upperback -3.15783 0.98322 2.72649
thorax -5.85267 0.537529 2.32137
lowerneck -23.6677 -3.45064 -5.6438
upperneck 30.9039 -3.20568 2.5331
head 14.845 -1.50449 1.43135
rclavicle -1.10465e-014 1.66979e-014
rhumerus -11.3702 17.0981 -84.767
rradius 93.2314
rwrist -3.77785
rhand -22.91 -35.8166
rfingers 7.12502
rthumb 3.53001 -65.7672
lclavicle -1.10465e-014 1.66979e-014
lhumerus -14.3308 -21.5163 92.9704
lradius 97.3005
lwrist 49.7944
lhand -33.2009 25.6142
lfingers 7.12502
lthumb -6.4082 55.4973
rfemur 4.90017 -5.63287 15.6959
rtibia 1.43125e-014
rfoot -9.9539 -12.717
rtoes -0.163557
lfemur -7.83719 -14.7394 -14.2941
ltibia 23.2242
lfoot -25.443 19.3037
ltoes -26.7142
250
root -8.87719 17.9824 -16.4855 139.645 91.573 134.914
lowerback 4.55443 0.555904 0.750698
upperback -3.16695 0.999677 2.81018
thorax -5.88757 0.548498 2.4064
lowerneck -23.6542 -3.4824 -5.69417
upperneck 30.9434 -3.22704 2.52643
head 14.8625 -1.5197 1.43376
rclavicle -1.07934e-015 3.4191e-014
rhumerus -10.3322 16.8709 -84.4953
rradius 92.5548
rwrist -3.54453
rhand -22.5737 -35.9255
rfingers 7.12502
rthumb 3.85477 -65.8704
lclavicle -1.07934e-015 3.4191e-014
lhumerus -13.1638 -21.3405 92.6897
lradius 96.0589
lwrist 50.7426
lhand -33.0085 25.654
lfingers 7.12502
lthumb -6.22245 55.5426
rfemur 4.79175 -5.78021 15.7728
rtibia 1.27222e-014
rfoot -9.931 -12.7225
rtoes -0.161141
lfemur -8.0335 -14.7516 -14.1778
ltibia 23.2596
lfoot -25.3695 19.2133
ltoes -26.6576
